<svg xmlns="http://www.w3.org/2000/svg" viewBox="0 0 54 54" id="car"><path fill="#545454" d="M50.82,34c.49-6.8-.15-8.35-.54-8.68a3.82,3.82,0,0,1-.53-.74.42.42,0,0,0-.17-.18s0-.07,0-.1a.42.42,0,0,0,0-.16c-.08-.18-.13-.31-.14-.32-.53-1.56-2.1-1.84-2.78-2.25l.28-.67a3.64,3.64,0,0,0,.48,0,6.46,6.46,0,0,0,1.35-.16,1.65,1.65,0,0,0,1.44-1.56.38.38,0,0,0,0-.1c-.32-1.83-2.55-2-2.79-2a1.66,1.66,0,0,0-1.24.37,2.76,2.76,0,0,0-.8,1.74c0,.29-.09.56-.14.79-1.7-3.38-3.06-5.7-3.06-5.7-1.55-2.84-3.44-3-3.6-3a83.55,83.55,0,0,0-11.16-.71h-.07a.48.48,0,0,0-.29-.1h0a.48.48,0,0,0-.29.1h-.07a83.59,83.59,0,0,0-11.17.71c-.25,0-2.08.23-3.59,3,0,0-1.39,2.38-3.06,5.72-.05-.23-.1-.49-.14-.77a2.78,2.78,0,0,0-.81-1.76,1.63,1.63,0,0,0-1.22-.37c-.22,0-2.48.16-2.8,2a.38.38,0,0,0,0,.1,1.66,1.66,0,0,0,1.42,1.56,7.31,7.31,0,0,0,1.37.16h0a3.64,3.64,0,0,0,.48,0l.28.67c-.67.4-2.25.68-2.78,2.24,0,0-.05.13-.14.33a.29.29,0,0,0,0,.16.34.34,0,0,0,0,.1.42.42,0,0,0-.17.18,4.18,4.18,0,0,1-.52.73C3,25.82,2.82,29,3.18,34a.47.47,0,0,0-.18.37V42a1.59,1.59,0,0,0,1.59,1.59h5.2A1.59,1.59,0,0,0,11.38,42v-.75a8.32,8.32,0,0,1,1.28.1c3.16.22,7.73.4,14.05.35a.43.43,0,0,0,.29.1h0a.43.43,0,0,0,.29-.1h1.85c6.22,0,10.59-.22,13.48-.46h0V42a1.59,1.59,0,0,0,1.58,1.59h5.21A1.59,1.59,0,0,0,51,42V34.32h0A.47.47,0,0,0,50.82,34ZM6.61,35.65A1.15,1.15,0,1,1,7.75,34.5,1.14,1.14,0,0,1,6.61,35.65Zm2.88-3.84A2.77,2.77,0,1,1,12.26,29,2.77,2.77,0,0,1,9.49,31.81Zm1.65-10.69h-.08a.93.93,0,0,1-.24,0,1.3,1.3,0,0,0,0-.15c.87-2.9,2.75-7.62,4.15-7.9,0,0,3.54-.71,12-.63h0c8.46-.08,12,.62,12,.63,1.4.29,3.28,5,4.14,7.89a.64.64,0,0,1,0,.15.55.55,0,0,1-.23,0h-.09c-5.56-.55-15.75-.55-15.85-.55S16.71,20.57,11.14,21.12ZM37.35,35.59s0,0,0,0c-.69.5-7.68.53-10.31.5v0c-2.63,0-9.62,0-10.31-.5,0,0,0,0,0,0,0-.18-.08-4-1.53-5.65.05-.13.42-.78,2.31-1A81.5,81.5,0,0,1,27,28.28a81.5,81.5,0,0,1,9.57.66c1.88.22,2.26.87,2.31,1C37.43,31.56,37.35,35.41,37.35,35.59ZM41.73,29a2.78,2.78,0,1,1,2.78,2.77A2.78,2.78,0,0,1,41.73,29Zm5.66,6.61a1.15,1.15,0,1,1,1.15-1.15A1.15,1.15,0,0,1,47.39,35.65Z"></path></svg>